/vscmnt/brussel_pixiu_data/_data_brussel/112/vsc11236/PredSimResults/SUBJ06mtu3D/weighted-LRposFixed/expIG/worker_01.mot
version=1
nRows=4
nColumns=50
inDegrees=yes
endheader
                time	         pelvis_tilt	         pelvis_list	     pelvis_rotation	           pelvis_tx	           pelvis_ty	           pelvis_tz	       hip_flexion_r	     hip_adduction_r	      hip_rotation_r	        knee_angle_r	       ankle_angle_r	         mtp_angle_r	       hip_flexion_l	     hip_adduction_l	      hip_rotation_l	        knee_angle_l	       ankle_angle_l	         mtp_angle_l	    lumbar_extension	      lumbar_bending	     lumbar_rotation	 ercspn_r/activation	 intobl_r/activation	 extobl_r/activation	    abd_r/activation	    add_r/activation	hamstrings_r/activation	bifemsh_r/activation	glut_max_r/activation	iliopsoas_r/activation	rect_fem_r/activation	  vasti_r/activation	gastroc_r/activation	 soleus_r/activation	tib_ant_r/activation	 ercspn_l/activation	 intobl_l/activation	 extobl_l/activation	    abd_l/activation	    add_l/activation	hamstrings_l/activation	bifemsh_l/activation	glut_max_l/activation	iliopsoas_l/activation	rect_fem_l/activation	  vasti_l/activation	gastroc_l/activation	 soleus_l/activation	tib_ant_l/activation	
          1.26643964	         -8.31305320	         -4.92020790	          9.49798633	          1.48173438	          0.92420404	         -0.01547252	         32.12013651	          0.78554197	         -6.18696443	         -1.82385637	          6.51453756	          0.21575833	        -10.20098949	         -5.17505680	          6.86645704	         -7.73473875	          9.31442567	         31.39535752	         -1.10995746	          3.00599146	         -3.19135983	          0.09740642	          0.17358479	          0.03008869	          0.01211079	          0.10882363	          0.05494962	          0.22338538	          0.01037575	          0.07262838	          0.01000013	          0.01000006	          0.02246791	          0.01000001	          0.29390992	          0.06990497	          0.01000001	          0.01000003	          0.05317132	          0.01173237	          0.02347592	          0.13229840	          0.03908926	          0.40244777	          0.01000015	          0.01000008	          0.33456370	          0.31836140	          0.01776277	
          1.27910404	         -8.40525166	         -4.85792039	          9.53841339	          1.49965807	          0.92209068	         -0.01520524	         32.10089718	          0.90213902	         -6.03581544	         -3.37193012	          6.03901805	          0.20665682	        -10.42036453	         -5.16326629	          6.48696105	         -9.16969621	          8.50269140	         33.42576288	         -0.81264224	          3.35863011	         -3.33200748	          0.08042986	          0.14333142	          0.02484465	          0.01000006	          0.12470237	          0.05602760	          0.18445270	          0.07530104	          0.05997026	          0.01000013	          0.01000003	          0.02737513	          0.01816579	          0.30724879	          0.10354984	          0.01000001	          0.01000003	          0.04390430	          0.04034185	          0.02116161	          0.10924064	          0.03227655	          0.40364309	          0.01000032	          0.01757535	          0.30023259	          0.29502776	          0.01466697	
          1.29176843	         -8.47566448	         -4.78491327	          9.51639185	          1.51794131	          0.92023097	         -0.01485472	         31.88305990	          1.00557730	         -5.88353005	         -4.79494717	          5.54289571	          0.19757503	        -10.49943019	         -5.12313618	          6.06845095	        -10.92911306	          7.52728689	         35.47493103	         -0.50351575	          3.71403739	         -3.44423040	          0.07980892	          0.11835075	          0.02051458	          0.07758438	          0.10414906	          0.06309181	          0.15230952	          0.10848229	          0.04951828	          0.01000004	          0.01000000	          0.02260403	          0.01499974	          0.36572535	          0.11013215	          0.01000001	          0.01000004	          0.03625239	          0.03331089	          0.02050467	          0.09020153	          0.02665119	          0.39672304	          0.01113257	          0.01776275	          0.24790622	          0.26013795	          0.01211072	
          1.30443283	         -8.52707072	         -4.69960523	          9.43487998	          1.53627106	          0.91886607	         -0.01440599	         31.52499193	          1.12615932	         -5.74998685	         -5.96719587	          4.87112954	          0.17006268	        -10.32444193	         -5.04583122	          5.62659131	        -13.16430122	          6.36125358	         37.46881989	         -0.21418790	          4.06919728	         -3.52292975	          0.08171609	          0.09772386	          0.01693917	          0.12989201	          0.12623153	          0.06006979	          0.12576412	          0.15453912	          0.04088793	          0.01000004	          0.01000001	          0.01866447	          0.01238550	          0.40248386	          0.14935906	          0.01000000	          0.01000003	          0.02993410	          0.04672639	          0.02058960	          0.07448068	          0.02200626	          0.38227444	          0.01000052	          0.01466696	          0.20469961	          0.21479952	          0.00999999	
